<?xml-stylesheet type="text/css" href="../css/main.css" ?>
<svg xmlns="http://www.w3.org/2000/svg" viewBox="0 0 320 189.7">
	<title>flechita</title>
	<g id="Layer_2" data-name="Layer 2">
		<g id="Layer_1-2" data-name="Layer 1">
			<path class="goTopIcon" d="M300,189.7v-9.94h-9.85v-9.88H280.09V159.81h-9.88V149.75H260.14v-9.88H250.08V129.81H240.2V119.75H230.14v-9.89H220.08V99.8h-9.89V89.74H200.13V79.86H190.07V69.79h-9.88V59.73H170.13V50H150.06v9.53h-9.89V69.62H130.11V79.5H120.05V89.56h-9.89V99.63H100.1v9.88H90v10.06H80.15v10.06H70.09v9.89H60v10.06H50.15v10.06H40.09v9.88H30v10.06H20V189.7H0v-40H10v-9.86h9.89V129.77H29.91v-9.89h9.9V110H49.88V99.91h9.89V89.84H69.84V80H79.91V69.88h9.9V59.81H99.88v-9.9H110V39.84h9.89V29.77h10.07V19.88h9.9V10h10.07V0h19.88V9.63h10.08v9.89h10.07V29.59h9.89V39.66h10.07v9.9h9.9v9.89h10.07V69.52h9.89V79.59H249.8v9.9h10.07V99.56h9.9v10.07h10.07v9.89h10.07v10.07h9.89v10.07h10.08v10H320v40Z"/>
		</g>
	</g>
</svg>