
<svg xmlns="http://www.w3.org/2000/svg" viewBox="0 0 18 18"><defs><style>.cls-1{fill:#ebcb8b;}</style></defs><title>star4</title><g id="Layer_2" data-name="Layer 2"><g id="Layer_1-2" data-name="Layer 1"><polygon class="cls-1" points="6 0 3 0 0 0 0 3 0 6 3 6 6 6 6 3 6 0"/><polygon class="cls-1" points="15 0 12 0 12 3 12 6 15 6 18 6 18 3 18 0 15 0"/><polygon class="cls-1" points="6 6 6 9 6 12 9 12 12 12 12 9 12 6 9 6 6 6"/><polygon class="cls-1" points="0 12 0 15 0 18 3 18 6 18 6 15 6 12 3 12 0 12"/><polygon class="cls-1" points="12 18 15 18 18 18 18 15 18 12 15 12 12 12 12 15 12 18"/></g></g></svg>