<?xml-stylesheet type="text/css" href="../css/main.css" ?>
<svg xmlns="http://www.w3.org/2000/svg" viewBox="0 0 684 288"><defs><style>.cls-1{fill:#3f4962;}.cls-2{fill:#475166;}.cls-3{fill:#39435e;}</style></defs><title>cloud1</title><g id="Layer_2" data-name="Layer 2"><g id="Layer_1-2" data-name="Layer 1"><polygon class="cls-1" points="351 93 348 93 345 93 342 93 342 90 342 87 342 84 339 84 336 84 336 81 333 81 333 78 333 75 333 72 330 72 327 72 324 72 321 72 321 69 321 66 324 66 324 63 321 63 318 63 315 63 312 63 312 60 312 57 312 54 312 51 309 51 306 51 303 51 300 51 297 51 294 51 291 51 291 48 291 45 291 42 294 42 297 42 300 42 300 39 300 36 300 33 303 33 303 30 306 30 309 30 312 30 312 27 312 24 312 21 315 21 318 21 321 21 321 18 321 15 321 12 324 12 327 12 330 12 333 12 336 12 339 12 342 12 342 9 342 6 342 3 342 0 345 0 348 0 351 0 354 0 357 0 360 0 363 0 366 0 369 0 372 0 375 0 378 0 381 0 384 0 387 0 390 0 393 0 396 0 399 0 402 0 405 0 408 0 411 0 414 0 417 0 420 0 423 0 426 0 429 0 432 0 435 0 438 0 441 0 444 0 447 0 447 3 447 6 447 9 444 9 441 9 438 9 438 12 435 12 435 15 435 18 435 21 438 21 441 21 444 21 447 21 447 24 447 27 447 30 447 33 450 33 453 33 456 33 456 36 456 39 456 42 456 45 456 48 456 51 456 54 456 57 456 60 456 63 456 66 456 69 456 72 456 75 456 78 456 81 456 84 453 84 453 81 450 81 447 81 447 84 444 84 441 84 438 84 435 84 435 87 435 90 435 93 432 93 429 93 426 93 423 93 420 93 417 93 414 93 411 93 408 93 405 93 402 93 399 93 396 93 393 93 390 93 387 93 384 93 381 93 378 93 375 93 372 93 369 93 366 93 363 93 360 93 357 93 354 93 351 93"/><polygon class="cls-1" points="390 165 393 165 396 165 396 162 396 159 396 156 396 153 396 150 396 147 396 144 399 144 402 144 402 147 405 147 405 144 408 144 411 144 414 144 414 147 417 147 417 144 420 144 420 147 423 147 423 144 426 144 426 141 426 138 426 135 429 135 432 135 435 135 435 132 435 129 435 126 438 126 441 126 444 126 447 126 447 123 450 123 450 126 453 126 456 126 459 126 462 126 465 126 468 126 468 129 468 132 468 135 471 135 474 135 477 135 480 135 483 135 486 135 486 138 486 141 486 144 483 144 480 144 477 144 474 144 471 144 468 144 465 144 462 144 459 144 456 144 453 144 450 144 447 144 447 147 447 150 447 153 444 153 444 156 441 156 438 156 435 156 435 159 435 162 435 165 432 165 429 165 426 165 423 165 420 165 417 165 414 165 414 168 414 171 414 174 414 177 411 177 408 177 405 177 405 180 405 183 405 186 402 186 399 186 396 186 396 189 393 189 393 192 393 195 393 198 393 201 393 204 393 207 390 207 387 207 384 207 384 204 384 201 384 198 384 195 384 192 384 189 384 186 384 183 384 180 384 177 384 174 384 171 384 168 384 165 387 165 390 165"/><polygon class="cls-1" points="516 84 519 84 522 84 525 84 528 84 531 84 534 84 537 84 540 84 543 84 546 84 549 84 552 84 555 84 558 84 561 84 564 84 567 84 570 84 573 84 576 84 579 84 582 84 585 84 588 84 591 84 591 87 591 90 591 93 594 93 597 93 600 93 603 93 606 93 609 93 612 93 612 96 612 99 612 102 612 105 615 105 618 105 621 105 621 108 621 111 621 114 621 117 621 120 621 123 624 123 627 123 630 123 630 126 633 126 633 129 633 132 633 135 630 135 627 135 624 135 621 135 618 135 615 135 612 135 609 135 606 135 603 135 600 135 597 135 594 135 591 135 591 132 591 129 591 126 591 123 588 123 585 123 582 123 579 123 576 123 573 123 570 123 567 123 564 123 561 123 558 123 555 123 552 123 549 123 546 123 543 123 540 123 540 120 540 117 540 114 537 114 534 114 531 114 531 111 528 111 528 108 528 105 528 102 525 102 522 102 519 102 519 99 519 96 519 93 516 93 513 93 510 93 510 90 510 87 510 84 513 84 516 84"/><polygon class="cls-1" points="255 177 258 177 261 177 264 177 267 177 270 177 273 177 276 177 279 177 282 177 285 177 288 177 291 177 291 174 291 171 291 168 291 165 294 165 297 165 300 165 303 165 306 165 309 165 312 165 315 165 318 165 321 165 324 165 327 165 330 165 330 168 333 168 333 171 333 174 333 177 333 180 333 183 333 186 336 186 339 186 342 186 342 189 342 192 342 195 342 198 345 198 348 198 351 198 354 198 354 201 354 204 354 207 354 210 354 213 354 216 351 216 348 216 345 216 342 216 339 216 336 216 333 216 333 213 333 210 333 207 330 207 327 207 324 207 321 207 318 207 315 207 312 207 309 207 306 207 303 207 303 204 303 201 303 198 300 198 300 195 297 195 294 195 294 198 291 198 291 195 288 195 288 198 285 198 282 198 282 195 282 192 282 189 282 186 279 186 276 186 273 186 270 186 267 186 264 186 261 186 258 186 255 186 252 186 249 186 249 183 249 180 249 177 252 177 255 177"/><polygon class="cls-1" points="87 198 90 198 93 198 93 195 96 195 96 192 96 189 96 186 96 183 96 180 96 177 96 174 96 171 96 168 96 165 99 165 102 165 105 165 105 162 105 159 105 156 105 153 105 150 105 147 105 144 108 144 111 144 114 144 114 141 114 138 114 135 117 135 120 135 123 135 126 135 129 135 132 135 135 135 138 135 141 135 144 135 147 135 150 135 153 135 156 135 159 135 162 135 165 135 168 135 168 132 168 129 168 126 168 123 171 123 174 123 177 123 177 120 177 117 177 114 177 111 177 108 177 105 180 105 183 105 186 105 186 102 189 102 189 99 189 96 189 93 192 93 195 93 198 93 198 90 198 87 198 84 201 84 204 84 207 84 207 81 207 78 207 75 210 75 210 72 213 72 216 72 219 72 222 72 225 72 228 72 228 69 228 66 228 63 231 63 234 63 237 63 240 63 243 63 246 63 249 63 249 66 249 69 249 72 252 72 255 72 258 72 261 72 264 72 267 72 270 72 273 72 276 72 279 72 279 75 279 78 279 81 282 81 282 84 285 84 288 84 291 84 291 87 291 90 291 93 291 96 291 99 291 102 291 105 291 108 291 111 291 114 291 117 291 120 291 123 291 126 291 129 291 132 291 135 288 135 285 135 282 135 279 135 276 135 273 135 270 135 267 135 264 135 261 135 261 138 261 141 261 144 258 144 255 144 252 144 249 144 246 144 243 144 240 144 240 147 240 150 240 153 237 153 237 156 234 156 231 156 228 156 228 159 228 162 228 165 225 165 222 165 219 165 219 168 219 171 219 174 216 174 216 177 213 177 210 177 207 177 207 180 207 183 207 186 204 186 201 186 198 186 198 183 198 180 198 177 195 177 192 177 189 177 189 174 189 171 189 168 189 165 186 165 183 165 180 165 177 165 177 168 177 171 177 174 177 177 177 180 177 183 177 186 177 189 177 192 177 195 174 195 171 195 168 195 168 198 165 198 165 201 165 204 165 207 162 207 159 207 156 207 153 207 150 207 147 207 144 207 141 207 138 207 135 207 132 207 129 207 126 207 123 207 120 207 117 207 114 207 111 207 108 207 105 207 102 207 99 207 96 207 93 207 90 207 87 207 84 207 84 204 84 201 84 198 87 198"/><polygon class="cls-1" points="609 240 612 240 615 240 618 240 621 240 621 237 624 237 624 234 624 231 624 228 627 228 630 228 633 228 636 228 639 228 642 228 645 228 648 228 651 228 654 228 654 231 654 234 654 237 654 240 654 243 654 246 654 249 651 249 648 249 645 249 642 249 642 252 642 255 642 258 639 258 636 258 633 258 630 258 627 258 624 258 621 258 618 258 615 258 612 258 609 258 606 258 603 258 603 255 603 252 603 249 603 246 603 243 603 240 606 240 609 240"/><path class="cls-2" d="M33,216v12H63v9h51v-9h72v-3h3v-3h-3v-3h3v-3h9V198h12v3h-3v3h3v3h9v21h9v9h21v12h63V237h42V216H333v-9H303v-9h-3v-3h-6v3h-3v-3h-3v3h-6V186H249v-9h42V165h39v3h3v18h9v12h12v18h9V198h6v-3h3v3h3v18h9v12h12v9h39v12h30v-3h3v-9h39v-9h12V165H507v-9h-9V144h-6v3h-3V135h18v3h3v6h18v9h3v3h51v9h9v12h42v9h-9v3h-3v9h-9v9h-9v9h18v21h3v-9h30v21h9v-9h3v-3h9V207h9v-9h-9V186H663v-9H642V135H591V123H540v-9h-9v-3h-3v-9h-9V93h-9V81h-3V63h-9V42h-9V33h-3V30h-9V21H456V12h-9V9h-9v3h-3v9h12V33h9V84h-3V81h-6v3H435v9H342V84h-6V81h-3V72H321V66h3V63H312V51H240V63h9v9h30v9h3v3h9v51H261v9H240v9h-3v3h-9v9h-9v9h-3v3h-9v9h-9v-9h-9V165H177v30h-9v3h-3v9H54v9H33Zm336-93h45v3h3v3h-3v6H375v9H354v12H342V144h-9V123h-9v-9h9v9h36Zm129-15v6h-9v-9h9ZM384,204V165h12V144h6v3h3v-3h9v3h3v-3h3v3h3v-3h3v-9h9v-9h12v-3h3v3h18v9h18v9H447v9h-3v3h-9v9H414v12h-9v9h-9v3h-3v18h-9Z"/><polygon class="cls-2" points="603 246 603 249 603 252 603 255 603 258 600 258 600 255 600 252 600 249 600 246 600 243 600 240 603 240 603 243 603 246"/><polygon class="cls-2" points="618 240 615 240 612 240 609 240 606 240 603 240 603 237 606 237 609 237 612 237 615 237 618 237 621 237 621 240 618 240"/><polygon class="cls-3" points="492 114 489 114 489 111 489 108 489 105 492 105 495 105 498 105 498 108 498 111 498 114 495 114 492 114"/><polygon class="cls-3" points="327 123 324 123 324 120 324 117 324 114 327 114 330 114 333 114 333 117 333 120 333 123 330 123 327 123"/><polygon class="cls-3" points="48 228 51 228 54 228 54 231 54 234 54 237 51 237 48 237 45 237 42 237 42 234 42 231 42 228 45 228 48 228"/><polygon class="cls-3" points="414 132 414 135 411 135 408 135 405 135 402 135 399 135 396 135 393 135 390 135 387 135 384 135 381 135 378 135 375 135 375 138 375 141 375 144 372 144 369 144 366 144 363 144 360 144 357 144 354 144 354 147 354 150 354 153 354 156 351 156 348 156 345 156 342 156 342 153 342 150 342 147 342 144 339 144 336 144 333 144 333 141 333 138 333 135 333 132 333 129 333 126 333 123 336 123 339 123 342 123 345 123 348 123 351 123 354 123 357 123 360 123 363 123 366 123 369 123 372 123 375 123 378 123 381 123 384 123 387 123 390 123 393 123 396 123 399 123 402 123 405 123 408 123 411 123 414 123 414 126 417 126 417 129 414 129 414 132"/><polygon class="cls-3" points="3 231 3 228 6 228 9 228 12 228 12 231 12 234 12 237 9 237 6 237 3 237 0 237 0 234 0 231 3 231"/><polygon class="cls-3" points="69 249 72 249 75 249 78 249 81 249 84 249 87 249 90 249 93 249 96 249 99 249 102 249 105 249 105 246 105 243 105 240 105 237 108 237 111 237 114 237 114 234 114 231 114 228 117 228 120 228 123 228 126 228 129 228 132 228 135 228 138 228 141 228 144 228 147 228 150 228 153 228 156 228 159 228 162 228 165 228 168 228 171 228 174 228 177 228 180 228 183 228 186 228 186 225 189 225 189 222 186 222 186 219 189 219 189 216 192 216 195 216 198 216 198 213 198 210 198 207 198 204 198 201 198 198 201 198 204 198 207 198 210 198 210 201 207 201 207 204 210 204 210 207 213 207 216 207 219 207 219 210 219 213 219 216 219 219 219 222 219 225 219 228 222 228 225 228 228 228 228 231 228 234 228 237 231 237 234 237 237 237 240 237 243 237 246 237 249 237 249 240 249 243 249 246 249 249 252 249 255 249 258 249 261 249 264 249 267 249 270 249 273 249 276 249 279 249 282 249 285 249 288 249 291 249 294 249 297 249 300 249 303 249 306 249 309 249 312 249 312 246 312 243 312 240 312 237 315 237 318 237 321 237 324 237 327 237 330 237 333 237 336 237 339 237 342 237 345 237 348 237 351 237 354 237 354 234 354 231 354 228 354 225 354 222 354 219 354 216 357 216 360 216 363 216 363 213 363 210 363 207 363 204 363 201 363 198 366 198 369 198 369 195 372 195 372 198 375 198 375 201 375 204 375 207 375 210 375 213 375 216 378 216 381 216 384 216 384 219 384 222 384 225 384 228 387 228 390 228 393 228 396 228 396 231 396 234 396 237 399 237 402 237 405 237 408 237 411 237 414 237 417 237 420 237 423 237 426 237 429 237 432 237 435 237 435 240 435 243 435 246 435 249 438 249 441 249 444 249 447 249 450 249 453 249 456 249 459 249 462 249 465 249 465 246 468 246 468 243 468 240 468 237 471 237 474 237 477 237 480 237 483 237 486 237 489 237 492 237 495 237 498 237 501 237 504 237 507 237 507 234 507 231 507 228 510 228 513 228 516 228 519 228 519 225 519 222 519 219 519 216 519 213 519 210 519 207 519 204 519 201 519 198 519 195 519 192 519 189 519 186 519 183 519 180 519 177 519 174 519 171 519 168 519 165 516 165 513 165 510 165 507 165 507 162 507 159 507 156 504 156 501 156 498 156 498 153 498 150 498 147 498 144 495 144 492 144 492 147 489 147 489 144 489 141 489 138 489 135 492 135 495 135 498 135 501 135 504 135 507 135 507 138 510 138 510 141 510 144 513 144 516 144 519 144 522 144 525 144 528 144 528 147 528 150 528 153 531 153 531 156 534 156 537 156 540 156 543 156 546 156 549 156 552 156 555 156 558 156 561 156 564 156 567 156 570 156 573 156 576 156 579 156 582 156 582 159 582 162 582 165 585 165 588 165 591 165 591 168 591 171 591 174 591 177 594 177 597 177 600 177 603 177 606 177 609 177 612 177 615 177 618 177 621 177 624 177 627 177 630 177 633 177 633 180 633 183 633 186 630 186 627 186 624 186 624 189 621 189 621 192 621 195 621 198 618 198 615 198 612 198 612 201 612 204 612 207 609 207 606 207 603 207 603 210 603 213 603 216 606 216 609 216 612 216 615 216 618 216 621 216 621 219 621 222 621 225 621 228 621 231 621 234 621 237 618 237 615 237 612 237 609 237 606 237 603 237 603 240 600 240 600 243 600 246 600 249 600 252 600 255 600 258 597 258 594 258 591 258 588 258 585 258 582 258 579 258 576 258 573 258 570 258 567 258 564 258 561 258 558 258 555 258 552 258 549 258 546 258 543 258 540 258 540 261 540 264 540 267 540 270 537 270 534 270 531 270 528 270 525 270 522 270 519 270 519 273 519 276 519 279 516 279 513 279 510 279 510 282 507 282 507 285 507 288 504 288 501 288 498 288 495 288 492 288 489 288 486 288 483 288 480 288 477 288 474 288 471 288 468 288 465 288 462 288 459 288 456 288 453 288 450 288 447 288 444 288 441 288 438 288 435 288 432 288 429 288 426 288 423 288 420 288 417 288 414 288 411 288 408 288 405 288 405 285 405 282 405 279 402 279 399 279 396 279 393 279 390 279 387 279 384 279 384 276 384 273 384 270 381 270 378 270 375 270 375 267 375 264 375 261 372 261 372 258 369 258 366 258 363 258 363 261 363 264 363 267 363 270 360 270 357 270 354 270 354 273 354 276 354 279 351 279 348 279 345 279 342 279 339 279 336 279 333 279 333 282 333 285 333 288 330 288 327 288 324 288 321 288 318 288 315 288 312 288 309 288 306 288 303 288 300 288 297 288 294 288 291 288 288 288 285 288 282 288 279 288 276 288 273 288 270 288 267 288 264 288 261 288 258 288 255 288 252 288 249 288 246 288 243 288 240 288 240 285 240 282 240 279 237 279 234 279 231 279 228 279 225 279 222 279 219 279 216 279 213 279 210 279 207 279 207 276 207 273 207 270 204 270 201 270 198 270 198 273 198 276 198 279 195 279 192 279 189 279 189 276 189 273 189 270 189 267 189 264 189 261 189 258 192 258 195 258 198 258 198 255 198 252 198 249 195 249 192 249 189 249 189 252 189 255 189 258 186 258 183 258 180 258 177 258 177 261 177 264 177 267 177 270 174 270 171 270 168 270 168 267 168 264 168 261 165 261 165 258 162 258 159 258 156 258 156 261 156 264 156 267 156 270 153 270 150 270 147 270 147 267 147 264 147 261 147 258 144 258 141 258 138 258 135 258 132 258 129 258 126 258 123 258 120 258 117 258 114 258 111 258 108 258 105 258 102 258 99 258 96 258 93 258 90 258 87 258 84 258 81 258 78 258 75 258 72 258 69 258 66 258 63 258 63 255 63 252 63 249 66 249 69 249"/></g></g></svg>