<?xml-stylesheet type="text/css" href="../css/main.css" ?>
<svg xmlns="http://www.w3.org/2000/svg" viewBox="0 0 960 570"><title>flechita2.svg</title><g id="Layer_2" data-name="Layer 2"><g id="Layer_1-2" data-name="Layer 1"><polygon class="goTopIcon" points="957 450 954 450 951 450 948 450 945 450 942 450 939 450 936 450 933 450 930 450 930 447 930 444 930 441 930 438 930 435 930 432 930 429 930 426 930 423 930 420 927 420 924 420 921 420 918 420 915 420 912 420 909 420 906 420 903 420 900 420 900 417 900 414 900 411 900 408 900 405 900 402 900 399 900 396 900 393 900 390 897 390 894 390 891 390 888 390 885 390 882 390 879 390 876 390 873 390 870 390 870 387 870 384 870 381 870 378 870 375 870 372 870 369 870 366 870 363 870 360 867 360 864 360 861 360 858 360 855 360 852 360 849 360 846 360 843 360 840 360 840 357 840 354 840 351 840 348 840 345 840 342 840 339 840 336 840 333 840 330 837 330 834 330 831 330 828 330 825 330 822 330 819 330 816 330 813 330 810 330 810 327 810 324 810 321 810 318 810 315 810 312 810 309 810 306 810 303 810 300 807 300 804 300 801 300 798 300 795 300 792 300 789 300 786 300 783 300 780 300 780 297 780 294 780 291 780 288 780 285 780 282 780 279 780 276 780 273 780 270 777 270 774 270 771 270 768 270 765 270 762 270 759 270 756 270 753 270 750 270 750 267 750 264 750 261 750 258 750 255 750 252 750 249 750 246 750 243 750 240 747 240 744 240 741 240 738 240 735 240 732 240 729 240 726 240 723 240 720 240 720 237 720 234 720 231 720 228 720 225 720 222 720 219 720 216 720 213 720 210 717 210 714 210 711 210 708 210 705 210 702 210 699 210 696 210 693 210 690 210 690 207 690 204 690 201 690 198 690 195 690 192 690 189 690 186 690 183 690 180 687 180 684 180 681 180 678 180 675 180 672 180 669 180 666 180 663 180 660 180 660 177 660 174 660 171 660 168 660 165 660 162 660 159 660 156 660 153 660 150 657 150 654 150 651 150 648 150 645 150 642 150 639 150 636 150 633 150 630 150 630 147 630 144 630 141 630 138 630 135 630 132 630 129 630 126 630 123 630 120 627 120 624 120 621 120 618 120 615 120 612 120 609 120 606 120 603 120 600 120 600 117 600 114 600 111 600 108 600 105 600 102 600 99 600 96 600 93 600 90 597 90 594 90 591 90 588 90 585 90 582 90 579 90 576 90 573 90 570 90 570 87 570 84 570 81 570 78 570 75 570 72 570 69 570 66 570 63 570 60 567 60 564 60 561 60 558 60 555 60 552 60 549 60 546 60 543 60 540 60 540 57 540 54 540 51 540 48 540 45 540 42 540 39 540 36 540 33 540 30 537 30 534 30 531 30 528 30 525 30 522 30 519 30 516 30 513 30 510 30 510 27 510 24 510 21 510 18 510 15 510 12 510 9 510 6 510 3 510 0 507 0 504 0 501 0 498 0 495 0 492 0 489 0 486 0 483 0 480 0 477 0 474 0 471 0 468 0 465 0 462 0 459 0 456 0 453 0 450 0 450 3 450 6 450 9 450 12 450 15 450 18 450 21 450 24 450 27 450 30 447 30 444 30 441 30 438 30 435 30 432 30 429 30 426 30 423 30 420 30 420 33 420 36 420 39 420 42 420 45 420 48 420 51 420 54 420 57 420 60 417 60 414 60 411 60 408 60 405 60 402 60 399 60 396 60 393 60 390 60 390 63 390 66 390 69 390 72 390 75 390 78 390 81 390 84 390 87 390 90 387 90 384 90 381 90 378 90 375 90 372 90 369 90 366 90 363 90 360 90 360 93 360 96 360 99 360 102 360 105 360 108 360 111 360 114 360 117 360 120 357 120 354 120 351 120 348 120 345 120 342 120 339 120 336 120 333 120 330 120 330 123 330 126 330 129 330 132 330 135 330 138 330 141 330 144 330 147 330 150 327 150 324 150 321 150 318 150 315 150 312 150 309 150 306 150 303 150 300 150 300 153 300 156 300 159 300 162 300 165 300 168 300 171 300 174 300 177 300 180 297 180 294 180 291 180 288 180 285 180 282 180 279 180 276 180 273 180 270 180 270 183 270 186 270 189 270 192 270 195 270 198 270 201 270 204 270 207 270 210 267 210 264 210 261 210 258 210 255 210 252 210 249 210 246 210 243 210 240 210 240 213 240 216 240 219 240 222 240 225 240 228 240 231 240 234 240 237 240 240 237 240 234 240 231 240 228 240 225 240 222 240 219 240 216 240 213 240 210 240 210 243 210 246 210 249 210 252 210 255 210 258 210 261 210 264 210 267 210 270 207 270 204 270 201 270 198 270 195 270 192 270 189 270 186 270 183 270 180 270 180 273 180 276 180 279 180 282 180 285 180 288 180 291 180 294 180 297 180 300 177 300 174 300 171 300 168 300 165 300 162 300 159 300 156 300 153 300 150 300 150 303 150 306 150 309 150 312 150 315 150 318 150 321 150 324 150 327 150 330 147 330 144 330 141 330 138 330 135 330 132 330 129 330 126 330 123 330 120 330 120 333 120 336 120 339 120 342 120 345 120 348 120 351 120 354 120 357 120 360 117 360 114 360 111 360 108 360 105 360 102 360 99 360 96 360 93 360 90 360 90 363 90 366 90 369 90 372 90 375 90 378 90 381 90 384 90 387 90 390 87 390 84 390 81 390 78 390 75 390 72 390 69 390 66 390 63 390 60 390 60 393 60 396 60 399 60 402 60 405 60 408 60 411 60 414 60 417 60 420 57 420 54 420 51 420 48 420 45 420 42 420 39 420 36 420 33 420 30 420 30 423 30 426 30 429 30 432 30 435 30 438 30 441 30 444 30 447 30 450 27 450 24 450 21 450 18 450 15 450 12 450 9 450 6 450 3 450 0 450 0 453 0 456 0 459 0 462 0 465 0 468 0 471 0 474 0 477 0 480 0 483 0 486 0 489 0 492 0 495 0 498 0 501 0 504 0 507 0 510 0 513 0 516 0 519 0 522 0 525 0 528 0 531 0 534 0 537 0 540 0 543 0 546 0 549 0 552 0 555 0 558 0 561 0 564 0 567 0 570 3 570 6 570 9 570 12 570 15 570 18 570 21 570 24 570 27 570 30 570 33 570 36 570 39 570 42 570 45 570 48 570 51 570 54 570 57 570 60 570 60 567 60 564 60 561 60 558 60 555 60 552 60 549 60 546 60 543 60 540 63 540 66 540 69 540 72 540 75 540 78 540 81 540 84 540 87 540 90 540 90 537 90 534 90 531 90 528 90 525 90 522 90 519 90 516 90 513 90 510 93 510 96 510 99 510 102 510 105 510 108 510 111 510 114 510 117 510 120 510 120 507 120 504 120 501 120 498 120 495 120 492 120 489 120 486 120 483 120 480 123 480 126 480 129 480 132 480 135 480 138 480 141 480 144 480 147 480 150 480 150 477 150 474 150 471 150 468 150 465 150 462 150 459 150 456 150 453 150 450 153 450 156 450 159 450 162 450 165 450 168 450 171 450 174 450 177 450 180 450 180 447 180 444 180 441 180 438 180 435 180 432 180 429 180 426 180 423 180 420 183 420 186 420 189 420 192 420 195 420 198 420 201 420 204 420 207 420 210 420 210 417 210 414 210 411 210 408 210 405 210 402 210 399 210 396 210 393 210 390 213 390 216 390 219 390 222 390 225 390 228 390 231 390 234 390 237 390 240 390 240 387 240 384 240 381 240 378 240 375 240 372 240 369 240 366 240 363 240 360 243 360 246 360 249 360 252 360 255 360 258 360 261 360 264 360 267 360 270 360 270 357 270 354 270 351 270 348 270 345 270 342 270 339 270 336 270 333 270 330 273 330 276 330 279 330 282 330 285 330 288 330 291 330 294 330 297 330 300 330 300 327 300 324 300 321 300 318 300 315 300 312 300 309 300 306 300 303 300 300 303 300 306 300 309 300 312 300 315 300 318 300 321 300 324 300 327 300 330 300 330 297 330 294 330 291 330 288 330 285 330 282 330 279 330 276 330 273 330 270 333 270 336 270 339 270 342 270 345 270 348 270 351 270 354 270 357 270 360 270 360 267 360 264 360 261 360 258 360 255 360 252 360 249 360 246 360 243 360 240 363 240 366 240 369 240 372 240 375 240 378 240 381 240 384 240 387 240 390 240 390 237 390 234 390 231 390 228 390 225 390 222 390 219 390 216 390 213 390 210 393 210 396 210 399 210 402 210 405 210 408 210 411 210 414 210 417 210 420 210 420 207 420 204 420 201 420 198 420 195 420 192 420 189 420 186 420 183 420 180 423 180 426 180 429 180 432 180 435 180 438 180 441 180 444 180 447 180 450 180 450 177 450 174 450 171 450 168 450 165 450 162 450 159 450 156 450 153 450 150 453 150 456 150 459 150 462 150 465 150 468 150 471 150 474 150 477 150 480 150 483 150 486 150 489 150 492 150 495 150 498 150 501 150 504 150 507 150 510 150 510 153 510 156 510 159 510 162 510 165 510 168 510 171 510 174 510 177 510 180 513 180 516 180 519 180 522 180 525 180 528 180 531 180 534 180 537 180 540 180 540 183 540 186 540 189 540 192 540 195 540 198 540 201 540 204 540 207 540 210 543 210 546 210 549 210 552 210 555 210 558 210 561 210 564 210 567 210 570 210 570 213 570 216 570 219 570 222 570 225 570 228 570 231 570 234 570 237 570 240 573 240 576 240 579 240 582 240 585 240 588 240 591 240 594 240 597 240 600 240 600 243 600 246 600 249 600 252 600 255 600 258 600 261 600 264 600 267 600 270 603 270 606 270 609 270 612 270 615 270 618 270 621 270 624 270 627 270 630 270 630 273 630 276 630 279 630 282 630 285 630 288 630 291 630 294 630 297 630 300 633 300 636 300 639 300 642 300 645 300 648 300 651 300 654 300 657 300 660 300 660 303 660 306 660 309 660 312 660 315 660 318 660 321 660 324 660 327 660 330 663 330 666 330 669 330 672 330 675 330 678 330 681 330 684 330 687 330 690 330 690 333 690 336 690 339 690 342 690 345 690 348 690 351 690 354 690 357 690 360 693 360 696 360 699 360 702 360 705 360 708 360 711 360 714 360 717 360 720 360 720 363 720 366 720 369 720 372 720 375 720 378 720 381 720 384 720 387 720 390 723 390 726 390 729 390 732 390 735 390 738 390 741 390 744 390 747 390 750 390 750 393 750 396 750 399 750 402 750 405 750 408 750 411 750 414 750 417 750 420 753 420 756 420 759 420 762 420 765 420 768 420 771 420 774 420 777 420 780 420 780 423 780 426 780 429 780 432 780 435 780 438 780 441 780 444 780 447 780 450 783 450 786 450 789 450 792 450 795 450 798 450 801 450 804 450 807 450 810 450 810 453 810 456 810 459 810 462 810 465 810 468 810 471 810 474 810 477 810 480 813 480 816 480 819 480 822 480 825 480 828 480 831 480 834 480 837 480 840 480 840 483 840 486 840 489 840 492 840 495 840 498 840 501 840 504 840 507 840 510 843 510 846 510 849 510 852 510 855 510 858 510 861 510 864 510 867 510 870 510 870 513 870 516 870 519 870 522 870 525 870 528 870 531 870 534 870 537 870 540 873 540 876 540 879 540 882 540 885 540 888 540 891 540 894 540 897 540 900 540 900 543 900 546 900 549 900 552 900 555 900 558 900 561 900 564 900 567 900 570 903 570 906 570 909 570 912 570 915 570 918 570 921 570 924 570 927 570 930 570 933 570 936 570 939 570 942 570 945 570 948 570 951 570 954 570 957 570 960 570 960 567 960 564 960 561 960 558 960 555 960 552 960 549 960 546 960 543 960 540 960 537 960 534 960 531 960 528 960 525 960 522 960 519 960 516 960 513 960 510 960 507 960 504 960 501 960 498 960 495 960 492 960 489 960 486 960 483 960 480 960 477 960 474 960 471 960 468 960 465 960 462 960 459 960 456 960 453 960 450 957 450"/></g></g></svg>