
<svg xmlns="http://www.w3.org/2000/svg" viewBox="0 0 18 18"><defs><style>.cls-1{fill:#ebcb8b;}</style></defs><title>star3</title><g id="Layer_2" data-name="Layer 2"><g id="Layer_1-2" data-name="Layer 1"><polygon class="cls-1" points="12 6 12 3 12 0 9 0 6 0 6 3 6 6 9 6 12 6"/><polygon class="cls-1" points="6 6 3 6 0 6 0 9 0 12 3 12 6 12 6 9 6 6"/><polygon class="cls-1" points="15 6 12 6 12 9 12 12 15 12 18 12 18 9 18 6 15 6"/><polygon class="cls-1" points="6 12 6 15 6 18 9 18 12 18 12 15 12 12 9 12 6 12"/></g></g></svg>